<svg width="180" height="180" viewBox="0 0 180 180" fill="none" xmlns="http://www.w3.org/2000/svg">
<path d="M90.0888 31.05C57.5294 31.05 31.0488 57.5306 31.0488 90.0901C31.0488 122.649 57.5294 149.13 90.0888 149.13C122.648 149.13 149.129 122.649 149.129 90.0901C149.129 57.5306 122.648 31.05 90.0888 31.05ZM122.36 71.9615L82.0403 112.281C81.4788 112.843 80.7445 113.131 80.0103 113.131C79.276 113.131 78.5417 112.843 77.9802 112.281L57.8207 92.122C56.6827 90.999 56.6827 89.1839 57.8207 88.0609C58.9437 86.9229 60.7589 86.9229 61.8818 88.0609L80.0104 106.175L118.299 67.8997C119.422 66.7616 121.237 66.7616 122.36 67.8997C123.498 69.0227 123.498 70.8378 122.36 71.9607L122.36 71.9615Z" fill="#5052C3"/>
</svg>
