<svg width="97" height="64" viewBox="0 0 97 64" fill="none" xmlns="http://www.w3.org/2000/svg">
<path d="M72.6025 63.4266C68.526 63.4266 64.9082 62.3566 61.7489 60.2165C58.5897 58.0763 56.0929 55.1719 54.2585 51.5031C52.4241 47.8343 51.5069 43.7579 51.5069 39.2738C51.5069 31.9362 53.9018 24.7515 58.6916 17.7196C63.5833 10.5859 70.4623 4.72601 79.3286 0.140015L96.4496 9.312C90.6407 12.1655 85.698 15.4776 81.6216 19.2483C77.647 23.019 74.9464 27.4521 73.5196 32.5477C78.3095 32.9553 82.1821 34.433 85.1375 36.9808C88.1948 39.4266 89.7235 42.8407 89.7235 47.2228C89.7235 51.605 88.1438 55.4267 84.9846 58.6878C81.9273 61.847 77.7999 63.4266 72.6025 63.4266ZM21.5451 63.4266C17.4687 63.4266 13.8509 62.3566 10.6916 60.2165C7.53239 58.0763 5.03557 55.1719 3.20118 51.5031C1.36678 47.8343 0.449585 43.7579 0.449585 39.2738C0.449585 31.9362 2.84449 24.7515 7.6343 17.7196C12.526 10.5859 19.405 4.72601 28.2712 0.140015L45.3923 9.312C39.5833 12.1655 34.6407 15.4776 30.5642 19.2483C26.5897 23.019 23.8891 27.4521 22.4623 32.5477C27.2521 32.9553 31.1247 34.433 34.0802 36.9808C37.1375 39.4266 38.6661 42.8407 38.6661 47.2228C38.6661 51.605 37.0865 55.4267 33.9273 58.6878C30.87 61.847 26.7426 63.4266 21.5451 63.4266Z" fill="#073289"/>
</svg>
