<svg width="294" height="295" viewBox="0 0 294 295" fill="none" xmlns="http://www.w3.org/2000/svg">
<g clip-path="url(#clip0_21_786)">
<path d="M290.31 148.976L159.989 263.526C159.298 264.134 158.37 264.451 157.448 264.297C155.431 263.96 154.371 261.883 154.984 260.175L170.608 216.651C170.61 216.647 170.609 216.642 170.607 216.637L135.101 161.972C133.879 160.071 135.064 157.504 137.289 157.3L186.012 152.865C186.017 152.865 186.022 152.861 186.024 152.856L196.618 122.485C197.124 121.036 198.69 120.211 200.192 120.602L251.009 133.808C252.649 134.234 253.67 135.906 253.288 137.542C252.906 139.178 251.266 140.157 249.625 139.731L201.495 127.223C201.488 127.221 201.48 127.225 201.478 127.232L180.351 187.8C180.346 187.812 180.359 187.824 180.371 187.819L278.604 147.29C278.617 147.285 278.615 147.265 278.601 147.262L264.218 143.524C262.583 143.099 261.445 141.471 261.785 139.83C262.134 138.148 263.798 137.133 265.464 137.565L288.975 143.675C289.122 143.714 289.271 143.766 289.412 143.826C291.494 144.712 291.959 147.527 290.31 148.976ZM183.794 159.25C183.797 159.239 183.789 159.228 183.778 159.23L144.997 162.76C144.985 162.761 144.98 162.777 144.99 162.786L173.734 188.027C173.742 188.034 173.754 188.031 173.758 188.021L183.794 159.25ZM252.786 164.621L176.396 196.139C175.342 196.572 174.076 196.355 173.199 195.584L152.162 177.111C152.148 177.1 152.13 177.116 152.14 177.13L174.879 212.141C174.884 212.148 174.893 212.15 174.9 212.145L252.8 164.648C252.815 164.639 252.803 164.615 252.786 164.621ZM259.374 167.886L176.521 218.403C176.518 218.405 176.516 218.407 176.515 218.41L164.814 251.004C164.809 251.018 164.827 251.031 164.838 251.021L259.392 167.909C259.406 167.898 259.389 167.876 259.374 167.886Z" fill="#08338A"/>
<path d="M99.3675 164.111C98.724 164.659 98.0536 165.201 97.3758 165.722C96.0549 166.736 94.1369 166.462 93.0909 165.109C92.0865 163.811 92.2524 161.99 93.4362 160.95C93.4853 160.907 93.5361 160.865 93.5888 160.824C94.1879 160.364 94.7798 159.886 95.3482 159.401C96.6155 158.321 98.5428 158.5 99.6524 159.8C100.762 161.1 100.635 163.043 99.3675 164.111Z" fill="#08338A"/>
<path d="M109.054 152.69C108.224 154.114 107.278 155.525 106.243 156.883C105.234 158.209 103.322 158.434 101.973 157.385C100.625 156.336 100.351 154.411 101.36 153.085C102.25 151.918 103.06 150.71 103.768 149.496C104.6 148.072 106.494 147.612 107.934 148.482C109.394 149.365 109.895 151.249 109.054 152.69Z" fill="#08338A"/>
<path d="M66.5642 151.894C67.3193 153.109 68.1779 154.293 69.1167 155.411C70.2164 156.72 70.0683 158.649 68.7964 159.717C67.5201 160.786 65.594 160.592 64.4946 159.283C63.3616 157.934 62.3239 156.503 61.4101 155.032C60.5212 153.6 60.9502 151.69 62.3555 150.835C63.7789 149.968 65.6631 150.443 66.5642 151.894Z" fill="#08338A"/>
<path d="M64.9892 127.825C64.3384 129.015 63.8036 130.284 63.3998 131.597C62.906 133.2 61.2009 134.063 59.5898 133.527C57.9792 132.989 57.0731 131.255 57.566 129.652C58.0887 127.955 58.7801 126.314 59.6229 124.773C60.4565 123.249 62.4804 122.782 63.9529 123.767C65.2799 124.655 65.738 126.456 64.9892 127.825Z" fill="#08338A"/>
<path d="M108.803 171.743C108.91 173.432 107.633 174.852 105.953 174.915C104.304 174.977 102.63 174.973 100.979 174.903C99.2945 174.832 97.9507 173.405 97.9769 171.717C98.0028 170.051 99.4128 168.718 101.075 168.788C102.565 168.851 104.077 168.854 105.566 168.798C107.247 168.736 108.696 170.054 108.803 171.743Z" fill="#08338A"/>
<path d="M62.5153 139.834C62.6205 141.222 62.8496 142.629 63.1965 144.014C63.6092 145.663 62.619 147.301 60.9865 147.672C59.3532 148.043 57.6948 147.007 57.2821 145.358C56.8498 143.631 56.5644 141.875 56.4327 140.138C56.2964 138.341 57.7894 136.821 59.5826 136.93C61.1151 137.024 62.3993 138.298 62.5153 139.834Z" fill="#08338A"/>
<path d="M80.8285 167.517C80.1206 169.032 78.3073 169.651 76.7788 168.901C75.0939 168.074 73.5257 167.181 72.2437 166.32C70.8271 165.368 70.4179 163.464 71.3291 162.067C71.4786 161.838 71.655 161.636 71.8511 161.464C72.8485 160.587 74.3611 160.466 75.5444 161.261C76.2769 161.753 77.5303 162.527 79.3429 163.417C80.8718 164.167 81.537 166.003 80.8285 167.517Z" fill="#08338A"/>
<path d="M94.6117 171.308C94.3192 172.965 92.7376 174.034 91.0786 173.697C89.4444 173.365 87.8065 172.965 86.2115 172.505C84.5811 172.036 83.604 170.339 84.0289 168.716C84.4481 167.112 86.1416 166.162 87.7496 166.624C89.1866 167.038 90.6628 167.399 92.1364 167.698C93.7957 168.035 94.9039 169.651 94.6117 171.308Z" fill="#08338A"/>
<path d="M113.591 137.892C113.535 139.621 113.302 141.392 112.898 143.156C112.525 144.794 110.89 145.782 109.247 145.363C107.604 144.944 106.576 143.277 106.951 141.64C107.268 140.254 107.45 138.872 107.493 137.533C107.548 135.868 108.98 134.559 110.641 134.657C112.325 134.756 113.646 136.205 113.591 137.892Z" fill="#08338A"/>
<path d="M74.8551 115.154C75.6968 116.64 75.1961 118.497 73.7365 119.304C72.6103 119.925 71.5009 120.657 70.4358 121.48L70.2509 121.625C68.9459 122.659 67.0244 122.414 65.9589 121.076C64.9259 119.78 65.0773 117.934 66.2762 116.88C66.3138 116.847 66.3532 116.814 66.3928 116.783L66.6353 116.593C67.9348 115.588 69.2987 114.689 70.6887 113.922C72.1486 113.117 74.0134 113.668 74.8551 115.154Z" fill="#08338A"/>
<path d="M108.696 122.514C109.827 124.018 110.774 125.601 111.509 127.22C112.215 128.773 111.546 130.574 110.017 131.24C108.487 131.908 106.675 131.19 105.969 129.637C105.425 128.438 104.716 127.255 103.862 126.12C102.848 124.773 103.101 122.827 104.418 121.844C105.735 120.862 107.682 121.166 108.696 122.514Z" fill="#08338A"/>
<path d="M101.84 119.52C100.959 120.938 99.0823 121.342 97.6452 120.422C96.4485 119.655 95.1814 118.986 93.8795 118.43C92.3147 117.764 91.5517 115.964 92.1759 114.41C92.7913 112.877 94.5955 112.148 96.1388 112.806C97.7616 113.498 99.3402 114.332 100.831 115.287C102.268 116.207 102.719 118.103 101.84 119.52Z" fill="#08338A"/>
<path d="M122.618 168.863C123.108 170.493 122.198 172.177 120.586 172.626C119.004 173.067 117.389 173.451 115.787 173.767C114.508 174.02 113.154 173.394 112.491 172.242C111.768 170.985 112.019 169.37 113.081 168.436C113.459 168.104 113.927 167.865 114.459 167.76C115.911 167.473 117.376 167.125 118.812 166.725C120.424 166.276 122.128 167.233 122.618 168.863Z" fill="#08338A"/>
<path d="M88.8349 113.612C88.7917 115.3 87.3927 116.598 85.7085 116.511C84.3186 116.439 82.9228 116.497 81.5587 116.683C79.8956 116.91 78.3292 115.736 78.0591 114.061C77.7925 112.409 78.9398 110.841 80.5814 110.617C82.3184 110.38 84.0954 110.306 85.8631 110.397C87.547 110.485 88.8775 111.924 88.8349 113.612Z" fill="#08338A"/>
<path d="M133.468 164.14C134.236 165.664 133.642 167.491 132.143 168.223C131.385 168.592 130.616 168.95 129.857 169.287C128.41 169.929 126.636 169.294 125.878 167.864C125.057 166.317 125.703 164.374 127.268 163.678C127.963 163.37 128.668 163.042 129.363 162.703C130.862 161.973 132.7 162.616 133.468 164.14Z" fill="#08338A"/>
<path d="M13.2233 129.981C13.4196 130.734 13.6338 131.492 13.8589 132.233C14.3535 133.861 13.4488 135.549 11.8388 136.003C10.2289 136.457 8.52213 135.505 8.02754 133.876C7.77828 133.056 7.5417 132.218 7.32467 131.386C6.90117 129.763 7.88752 128.088 9.49619 127.704C11.1247 127.316 12.7934 128.335 13.2233 129.981Z" fill="#08338A"/>
<path d="M17.0363 140.378C17.672 141.689 18.366 142.985 19.1004 144.229C19.9685 145.7 19.5025 147.566 18.0581 148.4C16.6147 149.233 14.7407 148.715 13.8723 147.244C13.0503 145.852 12.2737 144.403 11.5631 142.937C10.829 141.422 11.4602 139.574 12.9525 138.877C14.4643 138.17 16.2927 138.842 17.0363 140.378Z" fill="#08338A"/>
<path d="M27.1535 158.903C25.9775 160.077 24.0462 160.054 22.8402 158.843C21.9824 157.982 21.1412 157.083 20.34 156.172C19.6049 155.335 18.8604 154.548 18.7939 153.389C18.7401 152.449 19.1298 151.52 19.8445 150.925C20.5503 150.331 21.5148 150.102 22.4298 150.306C23.5383 150.555 24.1513 151.375 24.869 152.191C25.5834 153.004 26.3338 153.806 27.0993 154.575C28.3053 155.786 28.3294 157.724 27.1535 158.903Z" fill="#08338A"/>
<path d="M38.5128 166.867C37.6687 168.309 35.8035 168.758 34.3454 167.874C32.9576 167.032 31.589 166.126 30.2784 165.181C28.8935 164.183 28.5485 162.268 29.5075 160.904C30.4537 159.558 32.3853 159.258 33.7514 160.242C34.9268 161.089 36.1543 161.902 37.3991 162.657C38.8575 163.542 39.3565 165.426 38.5128 166.867Z" fill="#08338A"/>
<path d="M64.9849 173.696C64.9377 175.385 63.5357 176.678 61.8511 176.588C61.4201 176.565 60.9876 176.536 60.5531 176.502C59.3891 176.412 58.2008 176.279 57.0205 176.107C55.348 175.864 54.1526 174.31 54.3509 172.638C54.5467 170.988 56.0895 169.809 57.7394 170.049C58.7848 170.202 59.8367 170.319 60.8648 170.399C61.2506 170.429 61.6361 170.454 62.0195 170.475C63.7043 170.566 65.0311 172.009 64.9849 173.696Z" fill="#08338A"/>
<path d="M51.3682 171.935C50.894 173.543 49.1993 174.427 47.5829 173.91C46.0526 173.42 44.5189 172.86 43.0241 172.249C41.4505 171.604 40.6622 169.815 41.2638 168.252C41.8576 166.709 43.6498 165.954 45.2018 166.59C46.5451 167.14 47.924 167.643 49.2992 168.084C50.9162 168.602 51.8421 170.326 51.3682 171.935Z" fill="#08338A"/>
<path d="M76.4457 172.349C76.7732 174.015 75.6992 175.596 74.047 175.882C73.2067 176.027 72.3508 176.153 71.502 176.258C69.8356 176.464 68.2831 175.271 68.0342 173.594C67.7884 171.939 68.955 170.386 70.5999 170.183C71.3538 170.089 72.114 169.977 72.8605 169.848C74.513 169.563 76.1182 170.683 76.4457 172.349Z" fill="#08338A"/>
</g>
<defs>
<clipPath id="clip0_21_786">
<rect width="205.395" height="210.905" fill="white" transform="matrix(0.751092 -0.660198 -0.660198 -0.751092 139.239 294.011)"/>
</clipPath>
</defs>
</svg>
