<svg xmlns="http://www.w3.org/2000/svg" xmlns:xlink="http://www.w3.org/1999/xlink" width="1080" zoomAndPan="magnify" viewBox="0 0 810 809.999993" height="1080" preserveAspectRatio="xMidYMid meet" version="1.0"><defs><clipPath id="9ecdea80fd"><path d="M 196.320312 143 L 613.320312 143 L 613.320312 718.410156 L 196.320312 718.410156 Z M 196.320312 143 " clip-rule="nonzero"/></clipPath><clipPath id="f1af529c50"><path d="M 353 91.410156 L 398 91.410156 L 398 136 L 353 136 Z M 353 91.410156 " clip-rule="nonzero"/></clipPath><clipPath id="56e5d08fa4"><path d="M 412 91.410156 L 457 91.410156 L 457 136 L 412 136 Z M 412 91.410156 " clip-rule="nonzero"/></clipPath></defs><rect x="-81" width="972" fill="#f1f5f9" y="-80.999999" height="971.999992" fill-opacity="1"/><rect x="-81" width="972" fill="#f1f5f9" y="-80.999999" height="971.999992" fill-opacity="1"/><g clip-path="url(#9ecdea80fd)"><path fill="#073289" d="M 405.382812 143.765625 L 306.867188 143.847656 C 260.984375 143.847656 227.214844 180.695312 227.214844 220.839844 L 227.214844 505.164062 C 227.214844 544.054688 257.65625 575.980469 288.253906 580.910156 L 196.507812 718.523438 L 249.445312 718.523438 L 315.09375 622.335938 L 494.921875 622.335938 L 560.570312 718.523438 L 613.507812 718.523438 L 521.761719 580.910156 C 552.359375 575.980469 582.800781 544.054688 582.800781 505.164062 L 582.800781 220.839844 C 582.800781 180.695312 549.03125 143.847656 503.148438 143.847656 Z M 366.367188 160.261719 L 443.648438 160.261719 C 450.628906 160.261719 456.695312 166.117188 456.695312 173.097656 L 456.695312 195.703125 C 456.695312 202.683594 450.964844 208.667969 443.648438 208.667969 L 366.367188 208.667969 C 359.054688 208.667969 353.320312 202.683594 353.320312 195.703125 L 353.320312 173.097656 C 353.320312 166.117188 359.386719 160.261719 366.367188 160.261719 Z M 309.527344 224 L 500.484375 224 C 526.410156 224 540.164062 242.574219 540.164062 263.847656 L 540.164062 315.035156 C 540.367188 339.632812 522.421875 354.675781 500.484375 354.675781 L 309.527344 354.675781 C 287.585938 354.675781 269.644531 339.632812 269.84375 315.035156 L 269.84375 263.847656 C 269.84375 242.574219 283.597656 224 309.527344 224 Z M 305.203125 469.605469 C 324.492188 469.605469 340.105469 485.21875 340.105469 504.507812 C 340.105469 523.792969 324.492188 539.410156 305.203125 539.410156 C 285.917969 539.410156 270.300781 523.789062 270.300781 504.507812 C 270.300781 485.222656 285.917969 469.605469 305.203125 469.605469 Z M 503.980469 469.605469 C 523.265625 469.605469 538.925781 485.21875 538.925781 504.507812 C 538.925781 523.792969 523.265625 539.410156 503.980469 539.410156 C 484.695312 539.410156 469.078125 523.789062 469.078125 504.507812 C 469.078125 485.222656 484.695312 469.605469 503.980469 469.605469 Z M 503.980469 469.605469 " fill-opacity="1" fill-rule="nonzero"/></g><g clip-path="url(#f1af529c50)"><path fill="#073289" d="M 375.707031 135.535156 C 363.519531 135.535156 353.644531 125.65625 353.644531 113.472656 C 353.644531 101.285156 363.519531 91.410156 375.707031 91.410156 C 387.890625 91.410156 397.765625 101.289062 397.765625 113.472656 C 397.765625 125.65625 387.890625 135.535156 375.707031 135.535156 Z M 375.707031 135.535156 " fill-opacity="1" fill-rule="nonzero"/></g><g clip-path="url(#56e5d08fa4)"><path fill="#073289" d="M 434.316406 135.535156 C 446.5 135.535156 456.375 125.65625 456.375 113.472656 C 456.375 101.285156 446.5 91.410156 434.316406 91.410156 C 422.128906 91.410156 412.253906 101.289062 412.253906 113.472656 C 412.253906 125.65625 422.132812 135.535156 434.316406 135.535156 Z M 434.316406 135.535156 " fill-opacity="1" fill-rule="nonzero"/></g></svg>