<svg xmlns="http://www.w3.org/2000/svg" xmlns:xlink="http://www.w3.org/1999/xlink" width="1080" zoomAndPan="magnify" viewBox="0 0 810 809.999993" height="1080" preserveAspectRatio="xMidYMid meet" version="1.0"><defs><clipPath id="1a7b1048c6"><path d="M 130.175781 112.242188 L 679.925781 112.242188 L 679.925781 661.992188 L 130.175781 661.992188 Z M 130.175781 112.242188 " clip-rule="nonzero"/></clipPath></defs><rect x="-81" width="972" fill="#f1f5f9" y="-80.999999" height="971.999992" fill-opacity="1"/><rect x="-81" width="972" fill="#f1f5f9" y="-80.999999" height="971.999992" fill-opacity="1"/><g clip-path="url(#1a7b1048c6)"><path fill="#073289" d="M 405.089844 112.148438 C 556.882812 112.148438 679.914062 235.199219 679.914062 386.972656 C 679.914062 502.808594 608.242188 601.898438 506.8125 642.34375 L 502.800781 555.746094 L 502.800781 555.582031 C 503.023438 538.449219 510.253906 524.960938 526.300781 518.171875 L 528.363281 517.34375 L 528.472656 517.308594 L 528.601562 517.253906 L 528.804688 517.179688 C 540.617188 512.394531 550.242188 505.953125 556.792969 494.800781 C 564.980469 480.910156 566.5625 462.398438 566.5625 446.648438 C 566.5625 416.359375 557.636719 380.605469 542.253906 354.417969 C 531.324219 335.816406 514.082031 316.992188 490.804688 316.992188 C 467.527344 316.992188 450.285156 335.816406 439.355469 354.417969 C 423.972656 380.605469 415.046875 416.359375 415.046875 446.648438 C 415.046875 462.417969 416.628906 480.929688 424.816406 494.800781 C 431.441406 506.027344 441.175781 512.484375 453.046875 517.269531 C 453.375 517.398438 453.707031 517.546875 454.039062 517.675781 L 454.132812 517.675781 L 455.160156 518.117188 C 471.261719 524.886719 478.585938 538.230469 478.808594 555.582031 L 478.808594 555.746094 L 474.296875 653.015625 C 452.179688 658.757812 428.996094 661.8125 405.089844 661.8125 C 380.34375 661.8125 356.367188 658.519531 333.546875 652.390625 L 329.332031 561.324219 L 329.332031 561.121094 C 329.554688 543.566406 337.042969 529.726562 353.476562 522.773438 L 355.574219 521.945312 L 355.648438 521.925781 L 355.722656 521.890625 L 355.960938 521.796875 C 367.554688 517.105469 377.011719 510.792969 383.453125 499.84375 C 391.53125 486.136719 393.074219 467.753906 393.074219 452.203125 C 393.074219 450.695312 393.019531 449.1875 392.929688 447.675781 C 392.875 446.8125 392.800781 445.949219 392.6875 445.101562 L 392.542969 443.832031 L 392.78125 442.964844 L 382.789062 326.726562 L 372.335938 326.746094 L 371.4375 449.589844 L 354.027344 451.320312 L 343.6875 312.464844 L 332.351562 313.144531 L 330.105469 453.03125 L 323.941406 453.289062 C 322.652344 453.34375 321.367188 453.363281 320.097656 453.363281 C 318.808594 453.363281 317.5 453.34375 316.214844 453.289062 L 310.085938 453.03125 L 306.941406 313.144531 L 295.605469 312.484375 L 286.164062 451.339844 L 268.738281 449.609375 L 267.855469 326.746094 L 257.347656 326.746094 L 243.839844 443.023438 L 244.0625 443.851562 L 243.914062 445.082031 C 243.824219 445.949219 243.75 446.8125 243.695312 447.675781 C 243.601562 449.1875 243.546875 450.695312 243.546875 452.203125 C 243.546875 467.753906 245.09375 486.136719 253.171875 499.84375 C 259.667969 510.886719 269.234375 517.195312 280.902344 521.890625 C 281.179688 522 281.453125 522.109375 281.710938 522.21875 L 281.804688 522.21875 L 283.019531 522.734375 C 299.488281 529.671875 307.050781 543.363281 307.289062 561.121094 L 307.289062 561.324219 L 303.535156 642.472656 C 201.980469 602.101562 130.195312 502.9375 130.195312 386.988281 C 130.269531 235.179688 253.300781 112.148438 405.089844 112.148438 " fill-opacity="1" fill-rule="evenodd"/></g></svg>