<svg xmlns="http://www.w3.org/2000/svg" xmlns:xlink="http://www.w3.org/1999/xlink" width="1080" zoomAndPan="magnify" viewBox="0 0 810 809.999993" height="1080" preserveAspectRatio="xMidYMid meet" version="1.0"><defs><clipPath id="46d4c4e317"><path d="M 189 139 L 621.871094 139 L 621.871094 728 L 189 728 Z M 189 139 " clip-rule="nonzero"/></clipPath></defs><rect x="-81" width="972" fill="#f1f5f9" y="-80.999999" height="971.999992" fill-opacity="1"/><rect x="-81" width="972" fill="#f1f5f9" y="-80.999999" height="971.999992" fill-opacity="1"/><g clip-path="url(#46d4c4e317)"><path fill="#073289" d="M 513.089844 165.226562 C 504.863281 160.835938 496.386719 156.996094 487.660156 153.710938 C 478.9375 150.425781 470.03125 147.71875 460.953125 145.59375 C 451.875 143.46875 442.695312 141.945312 433.417969 141.015625 C 424.140625 140.085938 414.839844 139.765625 405.519531 140.050781 C 395.945312 139.757812 386.390625 140.105469 376.863281 141.09375 C 367.332031 142.082031 357.910156 143.703125 348.597656 145.957031 C 339.285156 148.210938 330.167969 151.078125 321.242188 154.558594 C 312.3125 158.035156 303.660156 162.097656 295.277344 166.738281 C 291.226562 169.121094 287.257812 171.632812 283.371094 174.277344 C 279.488281 176.921875 275.691406 179.6875 271.988281 182.582031 C 268.285156 185.476562 264.683594 188.488281 261.175781 191.617188 C 257.671875 194.75 254.273438 197.992188 250.984375 201.347656 C 247.691406 204.699219 244.515625 208.160156 241.449219 211.722656 C 238.386719 215.285156 235.441406 218.945312 232.621094 222.703125 C 229.796875 226.460938 227.101562 230.308594 224.53125 234.242188 C 221.960938 238.175781 219.523438 242.191406 217.21875 246.285156 C 214.914062 250.382812 212.746094 254.546875 210.714844 258.785156 C 208.683594 263.023438 206.792969 267.324219 205.046875 271.6875 C 203.296875 276.050781 201.695312 280.464844 200.238281 284.933594 C 198.78125 289.398438 197.472656 293.910156 196.3125 298.464844 C 195.152344 303.019531 194.140625 307.605469 193.285156 312.226562 C 192.425781 316.847656 191.71875 321.492188 191.167969 326.15625 C 190.613281 330.824219 190.214844 335.503906 189.972656 340.199219 C 189.726562 344.890625 189.636719 349.585938 189.703125 354.285156 C 192.25 439.75 246.71875 518.617188 295.160156 587.246094 C 329.40625 636 366.191406 682.757812 405.519531 727.515625 C 473.84375 650.117188 539.398438 565.226562 586.585938 473.183594 C 606.402344 434.515625 621.402344 395.640625 621.402344 352.542969 C 621.410156 347.820312 621.261719 343.101562 620.960938 338.386719 C 620.660156 333.671875 620.203125 328.972656 619.589844 324.289062 C 618.976562 319.601562 618.214844 314.945312 617.296875 310.308594 C 616.378906 305.675781 615.308594 301.078125 614.085938 296.511719 C 612.867188 291.949219 611.496094 287.429688 609.980469 282.957031 C 608.460938 278.480469 606.800781 274.0625 604.992188 269.699219 C 603.183594 265.332031 601.234375 261.03125 599.140625 256.796875 C 597.050781 252.5625 594.824219 248.398438 592.457031 244.308594 C 590.09375 240.21875 587.597656 236.210938 584.96875 232.285156 C 582.339844 228.359375 579.585938 224.523438 576.703125 220.78125 C 573.824219 217.035156 570.824219 213.390625 567.703125 209.84375 C 564.582031 206.296875 561.347656 202.855469 558.003906 199.519531 C 554.65625 196.183594 551.203125 192.964844 547.644531 189.855469 C 544.085938 186.75 540.429688 183.761719 536.675781 180.894531 C 532.921875 178.027344 529.074219 175.289062 525.140625 172.675781 C 521.203125 170.058594 517.1875 167.578125 513.089844 165.226562 Z M 405.519531 533.441406 C 402.644531 533.441406 399.769531 533.371094 396.898438 533.230469 C 394.027344 533.089844 391.160156 532.875 388.296875 532.59375 C 385.4375 532.3125 382.582031 531.960938 379.738281 531.539062 C 376.894531 531.117188 374.0625 530.625 371.242188 530.066406 C 368.421875 529.503906 365.617188 528.875 362.824219 528.175781 C 360.035156 527.476562 357.265625 526.710938 354.515625 525.875 C 351.761719 525.039062 349.03125 524.136719 346.324219 523.167969 C 343.617188 522.199219 340.933594 521.167969 338.277344 520.066406 C 335.621094 518.964844 332.992188 517.800781 330.394531 516.570312 C 327.792969 515.339844 325.226562 514.046875 322.691406 512.691406 C 320.152344 511.335938 317.652344 509.921875 315.1875 508.441406 C 312.71875 506.964844 310.289062 505.425781 307.898438 503.828125 C 305.507812 502.230469 303.15625 500.574219 300.847656 498.863281 C 298.539062 497.148438 296.273438 495.378906 294.050781 493.554688 C 291.824219 491.730469 289.648438 489.855469 287.519531 487.921875 C 285.386719 485.992188 283.304688 484.007812 281.273438 481.976562 C 279.238281 479.941406 277.257812 477.859375 275.324219 475.730469 C 273.394531 473.597656 271.515625 471.421875 269.691406 469.199219 C 267.867188 466.976562 266.097656 464.710938 264.386719 462.398438 C 262.671875 460.089844 261.015625 457.738281 259.417969 455.347656 C 257.820312 452.957031 256.285156 450.527344 254.804688 448.0625 C 253.328125 445.59375 251.910156 443.09375 250.554688 440.558594 C 249.199219 438.023438 247.90625 435.453125 246.675781 432.855469 C 245.449219 430.253906 244.28125 427.625 243.183594 424.96875 C 242.082031 422.3125 241.046875 419.628906 240.078125 416.921875 C 239.109375 414.214844 238.207031 411.484375 237.371094 408.734375 C 236.539062 405.980469 235.769531 403.210938 235.074219 400.421875 C 234.375 397.632812 233.742188 394.828125 233.183594 392.007812 C 232.621094 389.1875 232.128906 386.355469 231.707031 383.507812 C 231.285156 380.664062 230.933594 377.8125 230.652344 374.949219 C 230.371094 372.089844 230.160156 369.222656 230.019531 366.347656 C 229.878906 363.476562 229.804688 360.601562 229.808594 357.726562 C 229.804688 354.851562 229.878906 351.976562 230.019531 349.105469 C 230.160156 346.234375 230.371094 343.367188 230.652344 340.503906 C 230.933594 337.640625 231.285156 334.789062 231.707031 331.945312 C 232.128906 329.097656 232.621094 326.265625 233.183594 323.445312 C 233.742188 320.625 234.375 317.820312 235.074219 315.03125 C 235.769531 312.242188 236.539062 309.472656 237.371094 306.71875 C 238.207031 303.96875 239.109375 301.238281 240.078125 298.53125 C 241.046875 295.824219 242.082031 293.140625 243.183594 290.484375 C 244.28125 287.828125 245.449219 285.199219 246.675781 282.597656 C 247.90625 280 249.199219 277.433594 250.554688 274.894531 C 251.910156 272.359375 253.328125 269.859375 254.804688 267.390625 C 256.285156 264.925781 257.820312 262.496094 259.417969 260.105469 C 261.015625 257.714844 262.671875 255.363281 264.386719 253.054688 C 266.097656 250.742188 267.867188 248.476562 269.691406 246.253906 C 271.515625 244.03125 273.394531 241.855469 275.324219 239.722656 C 277.257812 237.59375 279.238281 235.511719 281.273438 233.476562 C 283.304688 231.445312 285.386719 229.460938 287.519531 227.53125 C 289.648438 225.601562 291.824219 223.722656 294.050781 221.898438 C 296.273438 220.074219 298.539062 218.304688 300.847656 216.589844 C 303.15625 214.878906 305.507812 213.222656 307.898438 211.625 C 310.289062 210.027344 312.71875 208.488281 315.1875 207.011719 C 317.652344 205.53125 320.152344 204.117188 322.691406 202.761719 C 325.226562 201.40625 327.792969 200.113281 330.394531 198.882812 C 332.992188 197.652344 335.621094 196.488281 338.277344 195.386719 C 340.933594 194.289062 343.617188 193.253906 346.324219 192.285156 C 349.03125 191.316406 351.761719 190.414062 354.515625 189.578125 C 357.265625 188.742188 360.035156 187.976562 362.824219 187.277344 C 365.617188 186.578125 368.421875 185.949219 371.242188 185.390625 C 374.0625 184.828125 376.894531 184.335938 379.738281 183.914062 C 382.582031 183.492188 385.4375 183.140625 388.296875 182.859375 C 391.160156 182.578125 394.027344 182.363281 396.898438 182.222656 C 399.769531 182.082031 402.644531 182.011719 405.519531 182.011719 C 408.398438 182.011719 411.269531 182.082031 414.144531 182.222656 C 417.015625 182.363281 419.882812 182.578125 422.742188 182.859375 C 425.605469 183.140625 428.460938 183.492188 431.304688 183.914062 C 434.148438 184.335938 436.980469 184.828125 439.800781 185.390625 C 442.621094 185.949219 445.425781 186.578125 448.214844 187.277344 C 451.003906 187.976562 453.777344 188.742188 456.527344 189.578125 C 459.28125 190.414062 462.011719 191.316406 464.71875 192.285156 C 467.425781 193.253906 470.105469 194.289062 472.765625 195.386719 C 475.421875 196.488281 478.050781 197.652344 480.648438 198.882812 C 483.25 200.113281 485.816406 201.40625 488.351562 202.761719 C 490.886719 204.117188 493.390625 205.53125 495.855469 207.011719 C 498.324219 208.488281 500.75 210.027344 503.144531 211.625 C 505.535156 213.222656 507.882812 214.878906 510.195312 216.589844 C 512.503906 218.304688 514.769531 220.074219 516.992188 221.898438 C 519.214844 223.722656 521.394531 225.601562 523.523438 227.53125 C 525.65625 229.460938 527.738281 231.445312 529.769531 233.476562 C 531.804688 235.511719 533.785156 237.59375 535.714844 239.722656 C 537.648438 241.855469 539.527344 244.03125 541.351562 246.253906 C 543.175781 248.476562 544.941406 250.742188 546.65625 253.054688 C 548.371094 255.363281 550.023438 257.714844 551.621094 260.105469 C 553.21875 262.496094 554.757812 264.925781 556.234375 267.390625 C 557.714844 269.859375 559.132812 272.359375 560.488281 274.894531 C 561.84375 277.433594 563.136719 280 564.363281 282.597656 C 565.59375 285.199219 566.757812 287.828125 567.859375 290.484375 C 568.960938 293.140625 569.996094 295.824219 570.964844 298.53125 C 571.933594 301.238281 572.835938 303.96875 573.667969 306.71875 C 574.503906 309.472656 575.269531 312.242188 575.96875 315.03125 C 576.667969 317.820312 577.296875 320.625 577.859375 323.445312 C 578.421875 326.265625 578.910156 329.101562 579.332031 331.945312 C 579.753906 334.789062 580.105469 337.640625 580.390625 340.503906 C 580.671875 343.367188 580.882812 346.234375 581.023438 349.105469 C 581.164062 351.976562 581.234375 354.851562 581.234375 357.726562 C 581.234375 360.601562 581.164062 363.476562 581.023438 366.347656 C 580.882812 369.222656 580.671875 372.089844 580.390625 374.949219 C 580.105469 377.8125 579.753906 380.664062 579.332031 383.507812 C 578.910156 386.355469 578.421875 389.1875 577.859375 392.007812 C 577.296875 394.828125 576.667969 397.632812 575.96875 400.421875 C 575.269531 403.210938 574.503906 405.980469 573.667969 408.734375 C 572.835938 411.484375 571.933594 414.214844 570.964844 416.921875 C 569.996094 419.628906 568.960938 422.3125 567.859375 424.96875 C 566.757812 427.625 565.59375 430.253906 564.363281 432.855469 C 563.136719 435.453125 561.84375 438.023438 560.488281 440.558594 C 559.132812 443.09375 557.714844 445.59375 556.234375 448.0625 C 554.757812 450.527344 553.21875 452.957031 551.621094 455.347656 C 550.023438 457.738281 548.367188 460.089844 546.65625 462.398438 C 544.941406 464.710938 543.175781 466.976562 541.351562 469.199219 C 539.527344 471.421875 537.648438 473.597656 535.714844 475.730469 C 533.785156 477.859375 531.804688 479.941406 529.769531 481.976562 C 527.738281 484.007812 525.652344 485.992188 523.523438 487.921875 C 521.394531 489.855469 519.214844 491.730469 516.992188 493.554688 C 514.769531 495.378906 512.503906 497.148438 510.195312 498.863281 C 507.882812 500.574219 505.535156 502.230469 503.144531 503.828125 C 500.75 505.425781 498.324219 506.964844 495.855469 508.441406 C 493.390625 509.921875 490.886719 511.335938 488.351562 512.691406 C 485.816406 514.046875 483.25 515.339844 480.648438 516.570312 C 478.050781 517.800781 475.421875 518.964844 472.765625 520.066406 C 470.105469 521.167969 467.425781 522.199219 464.71875 523.167969 C 462.007812 524.136719 459.28125 525.039062 456.527344 525.875 C 453.777344 526.710938 451.003906 527.476562 448.214844 528.175781 C 445.425781 528.875 442.621094 529.503906 439.800781 530.066406 C 436.980469 530.625 434.148438 531.117188 431.304688 531.539062 C 428.460938 531.960938 425.605469 532.3125 422.742188 532.59375 C 419.882812 532.875 417.015625 533.089844 414.144531 533.230469 C 411.269531 533.371094 408.398438 533.441406 405.519531 533.441406 Z M 405.519531 533.441406 " fill-opacity="1" fill-rule="nonzero"/></g><path fill="#073289" d="M 374.050781 381.332031 L 374.050781 329.925781 C 374.050781 329.925781 482.101562 317.90625 510.015625 375.277344 C 510.160156 375.617188 510.261719 375.964844 510.316406 376.332031 C 510.375 376.695312 510.382812 377.058594 510.347656 377.425781 C 510.308594 377.792969 510.226562 378.148438 510.101562 378.496094 C 509.972656 378.839844 509.804688 379.164062 509.59375 379.464844 C 509.386719 379.769531 509.140625 380.039062 508.863281 380.28125 C 508.582031 380.523438 508.277344 380.722656 507.949219 380.886719 C 507.617188 381.050781 507.273438 381.167969 506.914062 381.242188 C 506.550781 381.320312 506.1875 381.347656 505.820312 381.332031 Z M 374.050781 381.332031 " fill-opacity="1" fill-rule="nonzero"/><path fill="#073289" d="M 363.558594 350.121094 C 363.558594 350.808594 363.527344 351.492188 363.457031 352.179688 C 363.390625 352.863281 363.289062 353.539062 363.15625 354.214844 C 363.023438 354.886719 362.855469 355.554688 362.65625 356.210938 C 362.457031 356.871094 362.226562 357.515625 361.960938 358.148438 C 361.699219 358.785156 361.40625 359.40625 361.082031 360.011719 C 360.757812 360.617188 360.40625 361.207031 360.023438 361.777344 C 359.640625 362.347656 359.234375 362.898438 358.796875 363.429688 C 358.359375 363.960938 357.898438 364.472656 357.414062 364.957031 C 356.929688 365.441406 356.417969 365.902344 355.886719 366.339844 C 355.359375 366.777344 354.804688 367.183594 354.234375 367.566406 C 353.664062 367.949219 353.074219 368.300781 352.46875 368.625 C 351.863281 368.949219 351.242188 369.242188 350.609375 369.503906 C 349.972656 369.769531 349.328125 370 348.667969 370.199219 C 348.011719 370.398438 347.34375 370.566406 346.671875 370.699219 C 345.996094 370.832031 345.320312 370.933594 344.636719 371 C 343.953125 371.070312 343.265625 371.101562 342.578125 371.101562 C 341.890625 371.101562 341.207031 371.070312 340.523438 371 C 339.839844 370.933594 339.160156 370.832031 338.484375 370.699219 C 337.8125 370.566406 337.144531 370.398438 336.488281 370.199219 C 335.832031 370 335.183594 369.769531 334.550781 369.503906 C 333.914062 369.242188 333.292969 368.949219 332.6875 368.625 C 332.082031 368.300781 331.492188 367.949219 330.921875 367.566406 C 330.351562 367.183594 329.800781 366.777344 329.269531 366.339844 C 328.738281 365.902344 328.230469 365.441406 327.742188 364.957031 C 327.257812 364.472656 326.796875 363.960938 326.359375 363.429688 C 325.925781 362.898438 325.515625 362.347656 325.132812 361.777344 C 324.75 361.207031 324.398438 360.617188 324.074219 360.011719 C 323.75 359.40625 323.457031 358.785156 323.195312 358.148438 C 322.933594 357.515625 322.699219 356.871094 322.5 356.210938 C 322.300781 355.554688 322.136719 354.886719 322 354.214844 C 321.867188 353.539062 321.765625 352.863281 321.699219 352.179688 C 321.632812 351.492188 321.597656 350.808594 321.597656 350.121094 C 321.597656 349.433594 321.632812 348.75 321.699219 348.066406 C 321.765625 347.382812 321.867188 346.703125 322 346.027344 C 322.136719 345.355469 322.300781 344.6875 322.5 344.03125 C 322.699219 343.375 322.933594 342.726562 323.195312 342.09375 C 323.457031 341.457031 323.75 340.835938 324.074219 340.230469 C 324.398438 339.625 324.75 339.035156 325.132812 338.464844 C 325.515625 337.894531 325.925781 337.34375 326.359375 336.8125 C 326.796875 336.28125 327.257812 335.769531 327.742188 335.285156 C 328.230469 334.800781 328.738281 334.339844 329.269531 333.902344 C 329.800781 333.46875 330.351562 333.058594 330.921875 332.675781 C 331.492188 332.292969 332.082031 331.941406 332.6875 331.617188 C 333.292969 331.292969 333.914062 331 334.550781 330.738281 C 335.183594 330.472656 335.832031 330.242188 336.488281 330.042969 C 337.144531 329.84375 337.8125 329.675781 338.484375 329.542969 C 339.160156 329.410156 339.839844 329.308594 340.523438 329.242188 C 341.207031 329.175781 341.890625 329.140625 342.578125 329.140625 C 343.265625 329.140625 343.953125 329.175781 344.636719 329.242188 C 345.320312 329.308594 345.996094 329.410156 346.671875 329.542969 C 347.34375 329.675781 348.011719 329.84375 348.667969 330.042969 C 349.328125 330.242188 349.972656 330.472656 350.609375 330.738281 C 351.242188 331 351.863281 331.292969 352.46875 331.617188 C 353.074219 331.941406 353.664062 332.292969 354.234375 332.675781 C 354.804688 333.058594 355.359375 333.46875 355.886719 333.902344 C 356.417969 334.339844 356.929688 334.800781 357.414062 335.285156 C 357.898438 335.769531 358.359375 336.28125 358.796875 336.8125 C 359.234375 337.34375 359.640625 337.894531 360.023438 338.464844 C 360.40625 339.035156 360.757812 339.625 361.082031 340.230469 C 361.40625 340.835938 361.699219 341.457031 361.960938 342.09375 C 362.226562 342.726562 362.457031 343.375 362.65625 344.03125 C 362.855469 344.6875 363.023438 345.355469 363.15625 346.027344 C 363.289062 346.703125 363.390625 347.382812 363.457031 348.066406 C 363.527344 348.75 363.558594 349.433594 363.558594 350.121094 Z M 363.558594 350.121094 " fill-opacity="1" fill-rule="nonzero"/><path fill="#073289" d="M 295.371094 276.425781 C 296.40625 276.425781 297.429688 276.527344 298.441406 276.726562 C 299.453125 276.929688 300.4375 277.230469 301.394531 277.625 C 302.347656 278.019531 303.253906 278.503906 304.113281 279.078125 C 304.972656 279.652344 305.769531 280.304688 306.5 281.035156 C 307.230469 281.765625 307.882812 282.558594 308.457031 283.417969 C 309.03125 284.277344 309.515625 285.183594 309.910156 286.140625 C 310.304688 287.09375 310.601562 288.078125 310.804688 289.09375 C 311.007812 290.105469 311.105469 291.128906 311.105469 292.160156 L 311.105469 433.269531 L 279.636719 433.269531 L 279.636719 292.160156 C 279.636719 291.128906 279.738281 290.105469 279.9375 289.09375 C 280.140625 288.078125 280.4375 287.09375 280.832031 286.140625 C 281.230469 285.183594 281.714844 284.277344 282.289062 283.417969 C 282.863281 282.558594 283.515625 281.765625 284.246094 281.035156 C 284.976562 280.304688 285.769531 279.652344 286.628906 279.078125 C 287.488281 278.503906 288.394531 278.019531 289.351562 277.625 C 290.304688 277.230469 291.289062 276.929688 292.300781 276.726562 C 293.316406 276.527344 294.339844 276.425781 295.371094 276.425781 Z M 295.371094 276.425781 " fill-opacity="1" fill-rule="nonzero"/><path fill="#073289" d="M 515.671875 339.367188 C 516.703125 339.367188 517.726562 339.46875 518.738281 339.671875 C 519.753906 339.871094 520.738281 340.171875 521.691406 340.566406 C 522.648438 340.960938 523.554688 341.445312 524.414062 342.019531 C 525.273438 342.59375 526.066406 343.246094 526.796875 343.976562 C 527.527344 344.707031 528.179688 345.503906 528.753906 346.363281 C 529.328125 347.222656 529.8125 348.128906 530.207031 349.082031 C 530.601562 350.035156 530.902344 351.019531 531.105469 352.035156 C 531.304688 353.046875 531.40625 354.070312 531.40625 355.105469 L 531.40625 433.78125 L 499.933594 433.78125 L 499.933594 355.105469 C 499.933594 354.070312 500.035156 353.046875 500.238281 352.035156 C 500.4375 351.019531 500.738281 350.035156 501.132812 349.082031 C 501.527344 348.128906 502.011719 347.222656 502.585938 346.363281 C 503.160156 345.503906 503.8125 344.707031 504.542969 343.976562 C 505.273438 343.246094 506.070312 342.59375 506.929688 342.019531 C 507.789062 341.445312 508.695312 340.960938 509.648438 340.566406 C 510.601562 340.171875 511.585938 339.871094 512.601562 339.671875 C 513.613281 339.46875 514.636719 339.367188 515.671875 339.367188 Z M 515.671875 339.367188 " fill-opacity="1" fill-rule="nonzero"/><path fill="#073289" d="M 311.105469 412.632812 L 311.105469 381.332031 L 499.933594 381.332031 L 499.933594 412.632812 Z M 311.105469 412.632812 " fill-opacity="1" fill-rule="nonzero"/></svg>