<svg xmlns="http://www.w3.org/2000/svg" xmlns:xlink="http://www.w3.org/1999/xlink" width="1080" zoomAndPan="magnify" viewBox="0 0 810 809.999993" height="1080" preserveAspectRatio="xMidYMid meet" version="1.0"><defs><clipPath id="0d83e6788f"><path d="M 119.179688 119.183594 L 690.679688 119.183594 L 690.679688 690.683594 L 119.179688 690.683594 Z M 119.179688 119.183594 " clip-rule="nonzero"/></clipPath></defs><rect x="-81" width="972" fill="#f1f5f9" y="-80.999999" height="971.999992" fill-opacity="1"/><rect x="-81" width="972" fill="#f1f5f9" y="-80.999999" height="971.999992" fill-opacity="1"/><g clip-path="url(#0d83e6788f)"><path fill="#073289" d="M 404.75 119.015625 C 246.941406 119.015625 119.011719 246.941406 119.011719 404.75 C 119.011719 562.558594 246.941406 690.484375 404.75 690.484375 C 562.558594 690.484375 690.484375 562.558594 690.484375 404.75 C 690.484375 246.941406 562.558594 119.015625 404.75 119.015625 Z M 404.742188 231.683594 C 452.425781 231.683594 491.085938 270.339844 491.085938 318.027344 C 491.085938 365.707031 452.429688 404.367188 404.742188 404.367188 C 357.058594 404.367188 318.402344 365.714844 318.402344 318.027344 C 318.402344 270.339844 357.058594 231.683594 404.742188 231.683594 Z M 405.5625 559.042969 L 278.757812 559.042969 C 278.757812 473.953125 325.058594 443.660156 355.421875 416.472656 C 370.128906 424.378906 386.914062 428.914062 404.742188 429.046875 C 422.570312 428.914062 439.347656 424.378906 454.054688 416.472656 C 484.425781 443.667969 530.726562 473.957031 530.726562 559.042969 Z M 405.5625 559.042969 " fill-opacity="1" fill-rule="nonzero"/></g></svg>