<svg xmlns="http://www.w3.org/2000/svg" xmlns:xlink="http://www.w3.org/1999/xlink" width="1080" zoomAndPan="magnify" viewBox="0 0 810 809.999993" height="1080" preserveAspectRatio="xMidYMid meet" version="1.0"><defs><clipPath id="b9963c29e4"><path d="M 243.332031 106.996094 L 566 106.996094 L 566 604 L 243.332031 604 Z M 243.332031 106.996094 " clip-rule="nonzero"/></clipPath></defs><rect x="-81" width="972" fill="#f1f5f9" y="-80.999999" height="971.999992" fill-opacity="1"/><rect x="-81" width="972" fill="#f1f5f9" y="-80.999999" height="971.999992" fill-opacity="1"/><g clip-path="url(#b9963c29e4)"><path fill="#073289" d="M 477.71875 364.769531 C 484.957031 364.589844 492.425781 369.367188 492.425781 377.847656 L 492.425781 429.035156 C 492.425781 443.589844 482.109375 450.785156 466.519531 450.070312 C 457.808594 449.667969 446.609375 442.027344 446.820312 427.199219 C 447.226562 403.027344 449.902344 378.730469 470.808594 366.683594 C 472.902344 365.480469 475.308594 364.863281 477.71875 364.769531 Z M 331.230469 364.769531 C 333.640625 364.855469 336.058594 365.480469 338.152344 366.691406 C 359.058594 378.738281 361.734375 403.035156 362.136719 427.207031 C 362.351562 442.035156 351.203125 449.675781 342.492188 450.078125 C 326.851562 450.792969 316.535156 443.597656 316.535156 429.042969 L 316.535156 377.855469 C 316.523438 369.367188 323.992188 364.589844 331.230469 364.769531 Z M 404.476562 175.789062 C 423.589844 175.789062 439.09375 191.25 439.09375 210.375 C 439.09375 229.488281 423.582031 244.933594 404.476562 244.933594 C 385.394531 244.933594 369.90625 229.488281 369.90625 210.375 C 369.90625 191.25 385.394531 175.789062 404.476562 175.789062 Z M 257 106.960938 C 249.394531 106.960938 246.050781 113.394531 248.160156 120.675781 L 255.027344 144.617188 C 257.136719 151.898438 260.621094 155.25 268.210938 155.25 L 315.289062 155.25 L 337.027344 178.199219 L 310.367188 187.1875 C 306.484375 187.941406 303.53125 191.011719 301.527344 195.179688 L 257.085938 197.355469 C 249.371094 197.707031 243.417969 204.242188 243.769531 211.960938 C 244.171875 219.695312 250.707031 225.640625 258.425781 225.238281 L 300.445312 223.179688 C 302.769531 229.566406 307.058594 233.675781 313.273438 234.214844 L 340.023438 237.917969 L 363.074219 258.285156 L 314.519531 285.34375 C 298.4375 291.996094 294.785156 305.496094 294.785156 321.488281 L 294.785156 526.179688 C 294.785156 553.964844 309.5625 594.921875 351.144531 603.050781 L 351.144531 525.777344 C 351.144531 496.421875 375.308594 472.308594 405.007812 472.753906 C 434.4375 473.199219 457.882812 497.003906 457.882812 525.777344 L 457.882812 603.050781 C 499.425781 594.878906 514.210938 553.964844 514.210938 526.179688 L 514.210938 321.496094 C 514.210938 305.503906 510.539062 292.015625 494.425781 285.351562 L 445.921875 258.296875 L 468.972656 237.929688 L 495.71875 234.222656 C 501.9375 233.683594 506.175781 229.574219 508.496094 223.1875 L 550.570312 225.246094 C 558.289062 225.648438 564.804688 219.707031 565.175781 211.96875 C 565.578125 204.253906 559.632812 197.71875 551.90625 197.367188 L 507.453125 195.1875 C 505.445312 191.019531 502.496094 187.949219 498.574219 187.195312 L 471.949219 178.207031 L 493.703125 155.257812 L 540.785156 155.257812 C 548.375 155.257812 551.855469 151.90625 553.949219 144.625 L 560.785156 120.683594 C 562.894531 113.394531 559.574219 106.96875 551.941406 106.96875 L 500.015625 106.96875 C 492.425781 106.96875 488.542969 113.402344 486.347656 120.683594 L 480 145.15625 L 452.449219 174.238281 C 441.109375 159.128906 423.324219 150.25 404.476562 150.25 C 385.625 150.25 367.847656 159.136719 356.503906 174.238281 L 328.984375 145.15625 L 322.65625 120.683594 C 320.460938 113.394531 316.574219 106.96875 308.933594 106.96875 L 257 106.96875 Z M 257 106.960938 " fill-opacity="1" fill-rule="nonzero"/></g><path fill="#073289" d="M 404.664062 496.578125 C 387.726562 496.363281 374.914062 509.226562 374.914062 525.835938 L 374.914062 672.960938 C 374.914062 689.578125 387.917969 702.578125 404.476562 702.578125 C 421.09375 702.578125 434.035156 689.578125 434.035156 672.960938 L 434.035156 525.835938 C 434.035156 509.527344 421.894531 496.84375 404.664062 496.578125 Z M 404.664062 496.578125 " fill-opacity="1" fill-rule="nonzero"/></svg>