<svg xmlns="http://www.w3.org/2000/svg" xmlns:xlink="http://www.w3.org/1999/xlink" width="1080" zoomAndPan="magnify" viewBox="0 0 810 809.999993" height="1080" preserveAspectRatio="xMidYMid meet" version="1.0"><defs><clipPath id="822cb02220"><path d="M 188 483 L 652 483 L 652 690.75 L 188 690.75 Z M 188 483 " clip-rule="nonzero"/></clipPath></defs><rect x="-81" width="972" fill="#f1f5f9" y="-80.999999" height="971.999992" fill-opacity="1"/><rect x="-81" width="972" fill="#f1f5f9" y="-80.999999" height="971.999992" fill-opacity="1"/><path fill="#073289" d="M 588.660156 283.921875 C 587.363281 279.238281 584.183594 275.382812 579.710938 273.027344 C 580.679688 262.457031 579.238281 249.503906 576.765625 238.847656 C 574.675781 230.074219 571.378906 220.269531 566.34375 210.050781 C 561.015625 199.953125 554.449219 189.207031 545.234375 179.316406 C 536.488281 169.070312 525.214844 159.738281 512.496094 151.523438 C 401.53125 81.128906 248.320312 164.390625 260.214844 273.054688 C 255.769531 275.410156 252.617188 279.238281 251.324219 283.890625 C 225.0625 284.363281 203.953125 303.882812 203.953125 327.992188 C 203.953125 352.105469 225.0625 371.65625 251.324219 372.125 C 253.414062 379.722656 260.597656 385.492188 269.578125 385.492188 C 280.207031 385.492188 288.773438 377.632812 288.773438 367.914062 L 288.773438 288.128906 C 288.773438 282.59375 285.828125 277.855469 281.5 274.644531 C 286.300781 247.179688 300.578125 218.148438 320.597656 200.132812 C 349.980469 171.484375 400.972656 154.9375 457.027344 167.421875 C 478.609375 173.839844 499.835938 184.644531 517.53125 201.957031 C 537.226562 219.648438 553.210938 246.175781 558.421875 274.644531 C 547.089844 283.066406 551.152344 290.339844 551.152344 367.914062 C 551.152344 373.980469 554.742188 379.074219 559.835938 382.222656 L 559.835938 388.996094 C 559.835938 393.265625 558.628906 397.472656 556.304688 401.097656 C 531.21875 440.195312 529.570312 444.167969 491.679688 456.296875 C 479.757812 460.09375 466.300781 461.746094 452.699219 465.070312 C 440.160156 452.675781 418.046875 460.832031 418.046875 477.40625 C 418.046875 498.339844 450.726562 503.136719 457.058594 482.207031 C 466.242188 479.96875 475.695312 478.644531 484.585938 475.933594 C 533.457031 461.066406 549.445312 452.234375 575.324219 402.863281 C 577.765625 398.179688 579.0625 393 579.0625 387.730469 L 579.0625 383.371094 C 583.890625 381.074219 587.304688 377.042969 588.660156 372.097656 C 614.890625 371.625 635.972656 352.105469 635.972656 327.992188 C 635.972656 303.910156 614.890625 284.421875 588.660156 283.921875 " fill-opacity="1" fill-rule="nonzero"/><g clip-path="url(#822cb02220)"><path fill="#073289" d="M 420.019531 569.144531 C 435.714844 547.125 449.375 528.191406 462.769531 509.085938 C 478.460938 486.679688 494.269531 479.4375 519.0625 487.800781 C 550.5625 498.429688 581.742188 510.320312 612.242188 523.601562 C 638.414062 534.992188 653.105469 555.367188 651.488281 585.574219 C 650.664062 600.441406 651.488281 615.367188 651.28125 630.265625 C 650.75 671.304688 632.054688 690.414062 591.398438 690.621094 C 538.902344 690.941406 486.410156 690.738281 433.917969 690.738281 C 372.914062 690.738281 311.882812 690.882812 250.910156 690.648438 C 207.28125 690.441406 188.878906 671.804688 188.644531 628.410156 C 188.554688 614.21875 189.351562 600 188.46875 585.867188 C 186.523438 554.425781 202.714844 534.226562 229.417969 522.6875 C 259.949219 509.496094 291.273438 498.046875 322.835938 487.59375 C 349.746094 478.644531 358.078125 482.648438 374.742188 505.996094 C 389.078125 526.101562 403.535156 546.152344 420.019531 569.144531 " fill-opacity="1" fill-rule="nonzero"/></g><path fill="#073289" d="M 531.21875 307.179688 C 528.335938 344.214844 516.648438 391.527344 477.8125 427.976562 C 444.898438 458.859375 394.671875 459.625 362.285156 428.003906 C 317.417969 384.167969 303.257812 328.433594 310.207031 268.257812 C 313.828125 236.785156 333.023438 211.996094 365.261719 201.457031 C 413.191406 185.765625 459.621094 184.203125 501.808594 217.738281 C 526.449219 237.285156 532.074219 264.136719 531.21875 307.179688 " fill-opacity="1" fill-rule="nonzero"/></svg>